# xmcd CD database file
#
# Track frame offsets:
#	150
#	11452
#	29750
#	42362
#	55905
#	69887
#	84842
#	97285
#	111905
#	124687
#	139917
#
# Disc length: 2040 seconds
#
# Revision: 1
# Processed by: cddbd v1.4PL0 Copyright (c) Steve Scherf et al.
# Submitted via: CDex 1.40Release
#
DISCID=9407f60b
DTITLE=Jacob Lyda - My dreams just came true
DYEAR=1900
DGENRE=Country
TTITLE0=Honky tonk crazy
TTITLE1=My dreams just came true
TTITLE2=Tonight the bottle let me down
TTITLE3=After the pain
TTITLE4=It must have been something I drank
TTITLE5=Gone for Good
TTITLE6=Plowboy mansion
TTITLE7=Long back veil
TTITLE8=Hall of shame
TTITLE9=Memories of home
TTITLE10=Ain't it funny how those country songs come true
EXTD=ID3G: 2
EXTT0=
EXTT1=
EXTT2=
EXTT3=
EXTT4=
EXTT5=
EXTT6=
EXTT7=
EXTT8=
EXTT9=
EXTT10=
PLAYORDER=
